<svg xmlns="http://www.w3.org/2000/svg" xmlns:xlink="http://www.w3.org/1999/xlink" viewBox="0 0 400 300" width="406" height="306" xmlns:v="https://vecta.io/nano"><style><![CDATA[.B{fill:#1be716}.C{fill:#24285b}.D{fill:#ffd200}.E{fill:#f4a28c}.F{fill:#c9c9c9}]]></style><g fill="#e6e6e6"><path d="M69.42 55.87h232.26v163.38H69.42z"/><ellipse cx="268.86" cy="264.96" rx="86.26" ry="13.81" opacity=".45"/></g><path d="M200 138.56s-20.57 15.77-14.45 37.11 23.12 26.55 23.12 26.55v17.37l93-.33.35-37.18V97s-10.7-3-12 3.67-4 30.51-4.33 31.59-22.68-12.93-30 2.74l2.41 12.2 1.9 4.8-.33 9.71-1.6 7.29-4.07 7-4 6.08-6.78 5.55-7.81 4.16-17.64-2.13-12.7-14.66-5.07-15.06z" opacity=".08"/><g class="B"><path d="M277.42 256.28s-1 3.42-4 3.85-3.66 3.43-.89 4.05 9.62-3.27 9.62-3.27l-.44-4.36zm43.52 2.72s1 3.42 4.05 3.84 3.65 3.44.88 4.06-9.62-3.27-9.62-3.27l.44-4.37z"/><path d="M342.49,254.58s-7.08-1.94-8.62-8.53c0,0,11-2.22,11.28,9.11Z" opacity=".58"/><path d="M343.36,253.88s-4.95-7.83-.59-15.14c0,0,8.34,5.3,4.63,15.15Z" opacity=".73"/><path d="M344.63,253.88s2.62-8.26,10.52-9.82c0,0,1.48,5.36-5.12,9.84Z"/></g><g class="C"><path d="M339.5 253.69l1.43 9.83 9.05.04 1.33-9.81-11.81-.06z"/><circle cx="89.86" cy="72.17" r="4.4"/></g><circle cx="102.95" cy="72.17" r="4.4" class="B"/><circle cx="115.29" cy="72.17" r="4.4" class="D"/><path d="M138.22,128.12a3.49,3.49,0,0,0-.65.06,3.8,3.8,0,0,0,.23-1.31,3.74,3.74,0,0,0-3.74-3.74,3.68,3.68,0,0,0-2.14.68,5.19,5.19,0,1,0-9.76,3.13,4.9,4.9,0,0,0-.77-.07,4.78,4.78,0,0,0-.21,9.55h17a4.16,4.16,0,1,0,0-8.31Z" fill="#adadad"/><path fill="#f7f7f7" d="M277.61 38.23h48.83v35.65h-48.83z"/><path d="M298.83 63h-.06a1.45 1.45 0 0 1-1.07-.55l-4.84-6.23a1.43 1.43 0 1 1 2.26-1.76l3.81 4.9 9.38-10.14a1.44 1.44 0 0 1 2.11 1.95l-10.54 11.36a1.4 1.4 0 0 1-1.05.47z" fill="#adadad"/><path d="M225.66,215s25.75-11.63,30-37.63-3.48-46.46,26.41-53.56l3.56,30.56S285,206,227.34,221.67Z" class="B"/><path d="M225.66,215s25.75-11.63,30-37.63-3.48-46.46,26.41-53.56l3.56,30.56S285,206,227.34,221.67Z" fill="#fff" opacity=".46"/><g class="E"><path d="M298.21 101.76s-2.23 5.2-2.5 9a2.84 2.84 0 0 0 2.65 3 6.27 6.27 0 0 0 6.13-3l3.15-4.16a5.07 5.07 0 0 0-.43-5.85c-2.31-3.04-7.81-2.22-9 1.01z"/><path d="M306.42 107.63l-.48 18.51-10.19-.99 4.44-13.07 6.23-4.45z"/></g><path d="M299.46 102.42a22.6 22.6 0 0 0 5.08 1.25 4.72 4.72 0 0 0-1.62 4.92 3.84 3.84 0 0 0 3.92 2.9l2.19-6.92a5.76 5.76 0 0 0-1.17-5.79 21.6 21.6 0 0 0-1.93-1.89c-1.72-1.45-5.07-1.08-6.4-3a1.37 1.37 0 0 0-2.34.18c-1 2-1.71 5.42.75 7.5a5.19 5.19 0 0 0 1.52.85z" class="C"/><path d="M302.4,108.24s.72-2.06,2.22-1.39.48,3.65-1.73,3.23Z" class="E"/><circle cx="230.39" cy="159.94" r="27.68" fill="#fff" opacity=".22"/><path d="M297,105.11l-2.17,1.57a.91.91,0,0,0,.09,1.53l1.92,1.06Z" class="E"/><g fill="#fff"><circle cx="235.41" cy="148.67" r="8.61" opacity=".41"/><circle cx="241.91" cy="167" r="5.29" opacity=".41"/></g><path d="M299.68,113.76a6.66,6.66,0,0,0,3.78-.72s-.49,3.39-5.13,5.25Z" fill="#ce8172" opacity=".31"/><path d="M285.34 123.47s43 1.76 55.38 11.21-28.21 72-28.21 72l-41.35-7.16s-26.6-74.41 14.18-76.05z" class="B"/><path d="M321.94 140.87s-14.42 7-9.43 20.84-3.82 31.63-23.29 41l23.29 4s19.21-30.73 22.72-40.59-13.29-25.25-13.29-25.25z" opacity=".08"/><use xlink:href="#B" class="B"/><path d="M227.336 190.32l9.979-.642 4.581 71.223-9.979.642z" class="D"/><path opacity=".08" d="M227.336 190.32l9.979-.642 4.581 71.223-9.979.642z"/><path d="M225.094 208.797l16.965-1.091 3.648 56.713-16.965 1.091z" class="C"/><use xlink:href="#B" fill="#fff" opacity=".46"/><g class="C"><path d="M271.16,199.54l4.51,57.29H283s-3.33-38.5,9.67-46.16l19.84-4Z"/><path d="M312.51,206.7l9.82,52.63-7.21.94S307,215.67,287,210.67Z"/></g><path d="M319.69 200.85s-8.75-1.68-9.41 6 5.67 4.73 7.67.37zM225.66 215s-8.17 7.06-.34 9.17c4.35 1.13.34-9.17.34-9.17z" class="E"/><path d="M129.49 164.56a34.72 34.72 0 1 1 34.72-34.72 34.76 34.76 0 0 1-34.72 34.72zm0-60.08a25.37 25.37 0 1 0 25.37 25.36 25.4 25.4 0 0 0-25.37-25.36z" class="F"/><path d="M129.49,164.56a34.64,34.64,0,0,1-23-8.74l6.2-7a25.39,25.39,0,0,0,16.83,6.38Z" class="C"/><path d="M164.21 129.84h-9.35a25.4 25.4 0 0 0-25.37-25.36v-9.35a34.76 34.76 0 0 1 34.72 34.71z" class="B"/><path d="M129.49 164.56v-9.35a25.4 25.4 0 0 0 25.37-25.37h9.35a34.76 34.76 0 0 1-34.72 34.72z" class="D"/><path d="M117.98 177.54h32.36v9.07h-32.36z" class="F"/><path d="M98.55 177.54h12.4v9.07h-12.4z" class="B"/><path d="M98.55 193.15h12.4v9.07h-12.4z" class="C"/><path d="M117.98 193.15h32.36v9.07h-32.36z" class="F"/><path fill="#fff" d="M185.55 98.88H250v13.61h-64.45z"/><path d="M230.39 98.88H250v13.61h-19.61z" class="C"/><path d="M232.73 195a36.43 36.43 0 1 1 34-38.69 36.46 36.46 0 0 1-34 38.69zm-4-61.61A25.31 25.31 0 1 0 255.65 157a25.34 25.34 0 0 0-26.89-23.64z" class="D"/><defs ><path id="B" d="M321.14 142.37c4.28-9.3 16.56-11.6 24.26-4.87 10.74 9.41 25.33 26.37 25.8 49.5.8 36.75-53.2 20.2-53.2 20.2l2.25-8.2s36 4 29.5-16.25c-5.28-16.31-36.01-24.28-28.61-40.38z"/></defs></svg>