<svg xmlns="http://www.w3.org/2000/svg" viewBox="0 0 400 300" width="406" height="306" xmlns:v="https://vecta.io/nano"><g fill="#e6e6e6"><path d="M130.43,63.9C72,92,51.49,168.22,87.91,223.05c16.36,24.63,45.51,45.25,97.21,45.57,145.72.92,161.89-71.71,155.36-131.33C333.69,75.34,211.36,25,130.43,63.9Z" opacity=".3"/><path d="M88.32 48.58h104.07v171.71H88.32zm128.76 35.74h104.07v171.71H217.08z"/></g><path d="M88.32,122.15l1.59.7a107.48,107.48,0,0,0,102.49-8.19h0V48.58H88.32Z" fill="#fff" opacity=".66"/><g fill="none" stroke="#a8a8a8" stroke-miterlimit="10"><path d="M225.77 91.51h7.84m-7.84 3.79h7.84"/><path d="M225.77 99.09h7.84M96.74 56.91h7.84m-7.84 3.79h7.84m-7.84 3.79h7.84"/></g><g fill="#a8a8a8"><path d="M254.53 92.87h30.98v4.77h-30.98z"/><path opacity=".32" d="M126.82 58.32h30.98v4.77h-30.98z"/></g><path fill="#fff" opacity=".3" d="M217.08 109.55h104.07v128H217.08z"/><g fill="#c1c1c1"><path d="M229.69 125.55h29.44v8.88h-29.44zM109.82 146.1h63.26v8.88h-63.26z"/><path opacity=".51" d="M116.97 163.74h49.09v8.88h-49.09z"/></g><path fill="#fff" d="M269.01 125.55h41.44v8.88h-41.44z"/><path fill="#c1c1c1" d="M229.69 198.06h29.44v8.88h-29.44z"/><path fill="#fff" d="M269.01 198.06h41.44v8.88h-41.44z"/><path fill="#c1c1c1" d="M229.69 143.87h29.44v8.88h-29.44z"/><path fill="#fff" d="M269.01 143.87h33.36v8.88h-33.36z"/><path fill="#c1c1c1" d="M229.69 162.13h20.25v8.88h-20.25z"/><path fill="#fff" d="M269.01 162.13h41.44v8.88h-41.44z"/><path fill="#c1c1c1" d="M229.69 179.67h20.25v8.88h-20.25z"/><path fill="#fff" d="M269.01 179.67h28.25v8.88h-28.25z"/><path d="M244.41 216.36h50.98v13.79h-50.98zM116.46 187h50.98v13.79h-50.98z" fill="#ffd200"/><g fill="#0dea48"><path d="M132.9,101.59s-14.39-3.93-17.52-17.32c0,0,22.3-4.51,22.93,18.5Z" opacity=".58"/><path d="M134.66,100.16s-10-15.89-1.2-30.75c0,0,16.95,10.76,9.42,30.79Z" opacity=".73"/></g><ellipse cx="139.09" cy="120.11" rx="25.32" ry="5.45" opacity=".08"/><path d="M137.25,100.17s5.32-16.78,21.37-20c0,0,3,10.9-10.39,20Z" fill="#0dea48"/><path fill="#24285b" d="M126.82 99.8l2.92 19.95 18.37.08 2.71-19.94-24-.09z"/></svg>