<svg xmlns="http://www.w3.org/2000/svg" xmlns:xlink="http://www.w3.org/1999/xlink" viewBox="0 0 400 300" width="406" height="306" xmlns:v="https://vecta.io/nano"><g fill="#e6e6e6"><path d="M126.58 37.82c-39.68 11.64-64.82 51.43-57 92 4.14 21.34 17.16 41.36 48.25 50.8 82.9 25.18 169.35 8.26 195-31s4.97-123.45-79.91-126.07c-41.58-1.28-78.99 6.26-106.34 14.27z" opacity=".27"/><ellipse cx="207.73" cy="259.36" rx="130.51" ry="18.99" opacity=".45"/></g><use xlink:href="#B" fill="#ffd200"/><use xlink:href="#B" fill="#fff" opacity=".51"/><path fill="#ffd200" d="M175.872 39.778l9.732 6.294-12.31 19.036-9.732-6.294z"/><path d="M123.94,102.21s19.95-22.11,52.55-27.93L161.37,117s-21.09,11.31-40.86,10.53Z" fill="#09e556"/><path d="M123.94,102.21s19.95-22.11,52.55-27.93L161.37,117s-21.09,11.31-40.86,10.53Z" opacity=".08"/><path d="M185.73 254.29s-.65 3.81-3.84 4.66-3.46 4.17-.41 4.48 9.89-4.79 9.89-4.79l-1-4.63zm51.35 1.06s1.52 3.56 4.82 3.65 4.34 3.24 1.44 4.25-10.73-2.34-10.73-2.34l-.07-4.75z" fill="#09e556"/><path d="M348.85 77.14a8.54 8.54 0 0 0-8.54-8.54 8.83 8.83 0 0 0-1.37.12 11.51 11.51 0 0 0-10.14-6.06h-.42a14 14 0 0 0 .42-3.32 13.67 13.67 0 0 0-27.34 0 13.49 13.49 0 0 0 .43 3.32h-.43a11.51 11.51 0 1 0 0 23h40v-.06a8.53 8.53 0 0 0 7.39-8.46zM105 160.44a7.33 7.33 0 0 0-7.33-7.33 6.45 6.45 0 0 0-1.17.11 9.87 9.87 0 0 0-8.7-5.2h-.37a11.57 11.57 0 0 0 .37-2.84 11.73 11.73 0 0 0-23.45 0 11.57 11.57 0 0 0 .36 2.84h-.41a9.88 9.88 0 1 0 0 19.75h34.28v-.07a7.31 7.31 0 0 0 6.42-7.26z" fill="#e6e6e6"/><g fill="#ffd200"><ellipse cx="225.12" cy="35.88" rx="20.28" ry="16.88"/><path d="M210.98 43.59l-7.23 12.28 11.89-8.82-4.66-3.46z"/></g><g fill="#24285b"><circle cx="217.13" cy="35.88" r="2.5"/><circle cx="225.17" cy="35.88" r="2.5"/><circle cx="233.11" cy="35.88" r="2.5"/></g><g fill="#f4a28c"><path d="M175.62,44.37s-1.06,7.29-.1,12.24a3.7,3.7,0,0,0,4.35,2.92c2.49-.52,5.69-1.94,6.73-5.78l2.57-6.3a6.61,6.61,0,0,0-2.51-7.22C182.69,37,176,39.9,175.62,44.37Z"/><path d="M189.06 50.19l4.63 23.7-13.24 1.61 1.9-17.44 6.71-7.87z"/></g><path d="M190.19 44.26l-.42 9.45a5 5 0 0 1-5.92-2.33 6.14 6.14 0 0 1 .38-6.73 82.5 82.5 0 0 1-11.18.25c-.76-.08-2.45.18-2.35-3.16 0 0-.94-5.45 2.88-6.51s17.52 1.39 16.61 9.03z" fill="#24285b"/><path d="M171.3 72.07s55.38-10.62 74.31 0-20.77 109.39-20.77 109.39l-58.34-1.85s-51.05-97.39 4.8-107.54z" fill="#09e556"/><path d="M224.6,85.68s2.58,26.36-2.34,52.72-28.57,42.07-28.57,42.07l31.15,1s12.29-32.48,15.23-43.22S224.6,85.68,224.6,85.68Z" opacity=".08"/><path d="M176.49 71.17l23.82-3.82-18 81.25s-16.26-44.42-5.82-77.43z" fill="#fff"/><path d="M200.13 68.2L210 96.92l-13.75 11.48 3.88 14.54-17.85 25.66s9.77-61.33 17.85-80.4z" fill="#09e556"/><path d="M200.13 68.2L210 96.92l-13.75 11.48 3.88 14.54-17.85 25.66s9.77-61.33 17.85-80.4z" opacity=".08"/><path fill="#fff" d="M176.49 71.17l4.85-3.82 10.36-3.65 4.55 4.98-13 5.92-6.76-3.43z"/><g fill="#24285b"><path d="M179.67 72.78l2.61-3.63 4.09 4.03-5.23 5.8-1.47-6.2z"/><path d="M180.63,76.83s-6.2,26.36-4.43,49.24c0,0,3.52,18.66,6.08,22.53l6.17-34.46s-5-26.73-4-40.07Z"/></g><use xlink:href="#C" fill="#09e556"/><use xlink:href="#C" fill="#fff" opacity=".46"/><g fill="#24285b"><path d="M166.5,179.61l15.78,74.79h11.41l-2.61-46a19.94,19.94,0,0,1,13.48-20l20.28-6.9Z"/><path d="M224.84,181.46l15.55,75.4h-11.1l-17.71-42.11a45,45,0,0,0-23.13-23.62h0Z"/></g><path d="M156.22 58.64l5.54 7.36s-23.73 54.26-37.18 60.7-33.22-22.57 31.64-68.06z" fill="#09e556"/><path d="M161.76 56.2s2.7-7.69 8.73-3.76S161.76 66 161.76 66l-4.22-4.1zm88.96 141.23s-3.53 5.65 0 9.17 9.76 6.94 9.46-11.47z" fill="#f4a28c"/><path fill="#ffd200" d="M230.08 210.24h51.76v29.27h-51.76z"/><path d="M271.3 210.24s8.79 28.26-31.64 29.27h42.18v-29.27zM176.49 71.17s-11.73 12.58-14.73 27.08l8.84 11.25-5.86 8s5.56 20.94 17.54 31.1c0 0-16.78-43.85-5.79-77.43z" opacity=".08"/><circle cx="183.02" cy="159.92" r="2.5" opacity=".08"/><circle cx="184.15" cy="171.92" r="2.5" opacity=".08"/><defs ><path id="B" d="M266.55,211h-2.11v-3.4a3.5,3.5,0,0,0-3.5-3.5H248.49a3.51,3.51,0,0,0-3.51,3.5V211h-2.1v-3.4a5.61,5.61,0,0,1,5.61-5.61h12.45a5.61,5.61,0,0,1,5.61,5.61Z"/><path id="C" d="M249.37 75.12c12.76 13.24 22.67 45.15 10.81 120l-13.32 3.24s.15-24-6-56.28a247.7 247.7 0 0 0-12.21-42.17 106.07 106.07 0 0 1-3.53-11c-3.82-14.29 13.95-24.47 24.25-13.79z"/></defs></svg>