<svg xmlns="http://www.w3.org/2000/svg" xmlns:xlink="http://www.w3.org/1999/xlink" viewBox="0 0 400 300" width="406" height="306" xmlns:v="https://vecta.io/nano"><style><![CDATA[.B{fill:#fff}.C{fill:#0ee03b}.D{fill:#24285b}.E{opacity:.07}.F{fill:#ffd200}.G{fill:#f4a28c}]]></style><g fill="#e6e6e6"><ellipse cx="200.81" cy="253.87" rx="166.62" ry="19.34" opacity=".45"/><path d="M248.19 216h57.93v18.37h-57.93z"/></g><path fill="#c9c9c9" d="M248.19 234.69h81.33v18.37h-81.33z"/><path d="M148.77 64.3h114.61v189.58H148.77z" class="D"/><rect x="158.22" y="73.67" width="95.49" height="30.49" rx="9.29" class="B E"/><g class="C"><path d="M175.66 53.41H234V64.3h-58.34z"/><circle cx="236.3" cy="88.95" r="8.16"/></g><g class="B"><path d="M168 85.08h48.07v7.75H168z"/><rect x="158.22" y="120.01" width="95.49" height="30.49" rx="9.29" class="E"/></g><circle cx="236.3" cy="135.29" r="8.16" class="C"/><g class="B"><path d="M168 131.42h48.07v7.75H168z"/><rect x="158.22" y="166.35" width="95.49" height="30.49" rx="9.29" class="E"/></g><circle cx="236.3" cy="181.64" r="8.16" class="C"/><g class="B"><path d="M168 177.76h48.07v7.75H168z"/><rect x="158.22" y="212.69" width="95.49" height="30.49" rx="9.29" class="E"/></g><circle cx="236.3" cy="227.98" r="8.16" class="C"/><path d="M168 224.1h48.07v7.75H168z" class="B"/><path d="M168.64,178.45s26.8,6,37.32,24.64-32.62,50.78-32.62,50.78l-29.87.1-6.9-31.23,15.58-22.21Z" opacity=".08"/><path d="M246.65 35.77h66.25V83.2h-66.25z" class="F"/><path d="M299.55,65a5.47,5.47,0,0,0-5.48-5.47,5.14,5.14,0,0,0-.88.08,7.36,7.36,0,0,0-6.5-3.89h-.27a8.73,8.73,0,0,0-8.49-10.88,8.76,8.76,0,0,0-8.76,8.76,8.67,8.67,0,0,0,.27,2.12h-.27a7.38,7.38,0,1,0,0,14.76h25.62v0A5.48,5.48,0,0,0,299.55,65Z" class="B"/><path d="M114 175.13S79 171.42 80.33 190s21 58 21 58h43s32.64-50.06 16.76-66.16-19.55-2.33-47.09-6.71z" class="C"/><path d="M101.21 253.97l26.18 7.06 23.22-11.78 3.53-6.29h-23.41-37.24l7.72 11.01z" class="D"/><use xlink:href="#B" class="C"/><g class="B"><use xlink:href="#B" opacity=".46"/><path d="M114,175.13s-5.38,8.48-.1,11.51,7-.42,7-.42,3.93,4.64,7.45,1,3-10.76-.57-14.07S114,175.13,114,175.13Z"/></g><path d="M115.25 175.41a41.27 41.27 0 0 1 .47 4.71c.07 2.17.76 5.39 4.18 6 5.27 1 6.68-7.36 6.68-7.36s3.31-7.82-2.39-8.89c-5.14-.94-9.99-1.63-8.94 5.54z" class="G"/><path d="M135.58 187.17s-3.27 6.87 5 21c4.73 8.06-9.85 21.51-9.85 21.51l-36.27 3.64 6.82 14.68h43s18.9-30.74 20.36-46.56-29.06-14.27-29.06-14.27z" opacity=".08"/><path d="M126.25 179.12s.3-2.54 2.51-2.43 1.34 4.84-2.51 2.43zm-9.73-1.42s.78-2.43-1.28-3.24-3.24 3.85 1.28 3.24z" class="G"/><path d="M102.92 240.73l-3.03-27.65h46.42l-4.63 29.06.66 3.73-39.91.32.49-5.46z" class="F"/><path d="M121.61,254s8.81,3.08,5.78,7.06-7.81-2.63-7.81-2.63Z" class="C"/><path d="M146.31 213.08l-9.2 12.15a47.54 47.54 0 0 1-20.94 15.71l-13.74 5.25 36.81-.3h3.1l-.66-3.73z" opacity=".08"/><path d="M115.25 175.41s-8.54-1.23-4.73-7.51 4.67-1.57 6.47-6.44 3.43-5.81 6.08-3.73.08 6.43 4.08 5.21 6.73-2.37 7.49.95 0 4.9-2.57 6 1.47 5.6-5 7.42-9.84-5.26-9.84-5.26zm6.63 77.02s-35.61-18.18-38.64-8.5 21.5 15.29 37.34 15.87z" class="D"/><circle cx="123.56" cy="227.97" r="3.98" class="B"/><path d="M130.53,253.86s28.4-28.14,34.22-19.85-15.83,21.1-30.75,26.47Z" class="D"/><g class="C"><path d="M131.64,256s-8.41,7.49-3.54,9.7,5.9-5.2,5.9-5.2Z"/><use xlink:href="#C"/></g><use xlink:href="#C" opacity=".46" class="B"/><path d="M159.25 229.63s-8 5.43-5.11 6.93 7.84-2.48 7.84-2.48zm-44.75-35.1s2.88-7.05 6.82-6.48-2.21 9.2-2.21 9.2z" class="G"/><path d="M286.79 67.39l-6.36-9.04-6.37 9.04h3.19v7.01h6.26v-7.01h3.28z" class="D"/><path d="M42.39 100.22h66.25v47.43H42.39z" class="F"/><path d="M95.29 129.47a5.47 5.47 0 0 0-5.47-5.47 5.05 5.05 0 0 0-.88.08 7.37 7.37 0 0 0-6.5-3.89h-.27a8.76 8.76 0 1 0-17 0h-.27a7.38 7.38 0 0 0 0 14.76h25.63 0a5.48 5.48 0 0 0 4.76-5.48z" class="B"/><path d="M69.81 132.63l6.36 9.03 6.36-9.03h-3.19v-7.02h-6.26v7.02h-3.27z" class="D"/><defs ><path id="B" d="M97.13 195.22c3.28-11-2.91-23-14.64-14.18-8 6-17.56 25.2-18 43-1.14 40.81 48.92-3.1 55.14-26.47l-6.16-3.64S103 213.47 91.73 217.71c-8.16 3.06.56-6.29 5.4-22.49z"/><path id="C" d="M135.58 187.17a12 12 0 0 1 10.7-13.17c6.42-.69 14.86-.26 22.36 4.44 14.56 9.12 30.66 16.4 26.69 32.94s-32.86 23.48-32.86 23.48l-3.86-6.28s25.47-8.6 20.84-22.05c-4.18-12.12-41.13 8.14-43.87-19.36z"/></defs></svg>