<svg transform="scale(1)" id="_0011_handshake" xmlns="http://www.w3.org/2000/svg" viewBox="0 0 500 500" class="show_show__wrapper__graphic__5Waiy "><title>React</title><defs><style>.cls-1,.cls-2{fill:#fff;}.cls-3{fill:#f4a28c;}.cls-4{fill:#a5a5a5;}.cls-5{fill:#d88b7c;}.cls-6{fill:#e6e6e6;}.cls-7{opacity:.11;}.cls-7,.cls-8,.cls-9{fill:#000001;}.cls-10{fill:#ce8172;opacity:.31;}.cls-2{opacity:.2;}.cls-8{opacity:.02;}.cls-11{fill:#24285b;}.cls-9{opacity:.08;}.cls-12{fill:#ffd200;}.cls-13{fill:#00dc35;}</style></defs><g id="box2"><rect class="cls-6" x="332.79" y="33.64" width="133.23" height="168.47" transform="translate(798.82 235.75) rotate(-180)"></rect><path class="cls-7" d="m338.47,68.95s24.33-2.31,24.91,18.59c0,0-1.74,37.86,14.13,55.48,15.87,17.61,64.81-21.86,75.9,59.09l-48.43.06-53.93-41.97-15.44-58.06,2.85-33.19Z"></path><circle class="cls-1" cx="422.53" cy="103.27" r="25.38"></circle><path class="cls-4" d="m418.28,114.97c-.06,0-.12,0-.19,0-1.11-.06-2.13-.65-2.74-1.59l-6.91-10.7c-1.04-1.61-.58-3.77,1.03-4.81,1.61-1.05,3.77-.58,4.81,1.03l4.31,6.66,10.27-12.7c1.21-1.49,3.4-1.73,4.89-.52,1.49,1.21,1.73,3.4.52,4.89l-13.29,16.44c-.66.82-1.66,1.29-2.71,1.29Z"></path><rect class="cls-4" x="394.68" y="49.59" width="50.7" height="12.42" transform="translate(840.07 111.59) rotate(-180)"></rect></g><g id="box1"><rect class="cls-6" x="48.2" y="33.67" width="133.23" height="168.47"></rect><path class="cls-7" d="m175.75,68.98s-24.33-2.31-24.91,18.59c0,0,1.74,37.86-14.13,55.48-15.87,17.61-55.67-21.86-66.76,59.09l39.29.06,53.93-41.97,15.44-58.06-2.85-33.19Z"></path><circle class="cls-1" cx="91.69" cy="103.3" r="25.38"></circle><path class="cls-4" d="m89.57,115c-.06,0-.12,0-.19,0-1.11-.06-2.13-.65-2.74-1.59l-6.91-10.7c-1.04-1.61-.58-3.77,1.03-4.81,1.61-1.04,3.77-.58,4.81,1.03l4.3,6.66,10.27-12.7c1.21-1.49,3.4-1.73,4.89-.52,1.49,1.21,1.73,3.4.52,4.89l-13.29,16.44c-.66.82-1.66,1.29-2.71,1.29Z"></path><rect class="cls-4" x="68.83" y="49.62" width="50.7" height="12.42"></rect></g><ellipse class="cls-8" id="sd" cx="250" cy="433.77" rx="226.65" ry="32.59"></ellipse><g id="handshake"><path class="cls-5" d="m207.8,140.67s20.76,24.6,29.46,39.39c8.7,14.79,39.03,18.47,58.89-18.81,11.8-22.15,14.65-33.93,24.57-26.82,9.93,7.11-12.77,37.12-12.77,37.12,0,0-10.06,69.15-100.15,47.99-117.06-27.5,0-78.85,0-78.85Z"></path><path class="cls-13" d="m386.86,146.48c10.64,39.97,24.83,143.8-119.9,131.48v-14.35s66.11-10,74.8-38.71c7.37-24.32-14.51-88.53,17.34-95.84,12.31-2.83,24.51,5.21,27.76,17.42Z"></path><path class="cls-9" d="m386.86,146.48c10.64,39.97,24.83,143.8-119.9,131.48v-14.35s66.11-10,74.8-38.71c7.37-24.32-14.51-88.53,17.34-95.84,12.31-2.83,24.51,5.21,27.76,17.42Z"></path><path class="cls-3" d="m199.56,79.11s1.16,13.37-1.09,22.26c-.91,3.61-4.64,5.82-8.23,4.86-4.46-1.2-10.15-4.11-11.64-11.2l-4.01-11.72s-2.26-7.43,5.31-12.87c7.57-5.44,19.36.5,19.66,8.68Z"></path><polygon class="cls-3" points="176.6 86.4 161.3 120.11 181.21 134.88 185.18 103.17 176.6 86.4"></polygon><path class="cls-11" d="m196.24,79.67c-2.34.12-6.65.11-12.37-.95,0,0,4.19,5.84,0,12.28-4.19,6.44-11.01,3.64-11.01,3.64l.22-17.24c-.1-5.03,2.55-9.72,6.93-12.19,1.79-1.01,3.77-2.01,5.76-2.81,4.96-1.99,12.23,1.32,16.68-2.03,1.95-1.47,4.77-.3,5.13,2.12.78,5.24-.16,13.5-7.26,16.36-1.3.52-2.69.75-4.09.82Z"></path><path class="cls-3" d="m185.3,90.6s-.1-5.17-3.98-4.77-3.78,7.86,1.49,8.56l2.49-3.79Z"></path><path class="cls-3" d="m199.86,87.57l3.74,5.17c.92,1.28.2,3.08-1.34,3.37l-5.13.97,2.74-9.51Z"></path><path class="cls-10" d="m185.07,104.07s-4.51-2.6-6.11-6.3c0,0-4.77,8.36,4.97,15.38l1.14-9.08Z"></path><path class="cls-3" d="m312.4,83.32s-1.16,13.37,1.09,22.26c.91,3.61,4.64,5.82,8.23,4.86,4.46-1.2,10.15-4.11,11.64-11.2l4.01-11.72s2.26-7.43-5.31-12.87c-7.57-5.44-19.36.5-19.66,8.68Z"></path><polygon class="cls-3" points="335.37 90.61 350.67 124.32 330.76 139.09 326.79 107.38 335.37 90.61"></polygon><path class="cls-3" d="m326.66,94.81s.1-5.17,3.98-4.77,3.78,7.86-1.49,8.56l-2.49-3.79Z"></path><path class="cls-3" d="m312.1,91.78l-3.74,5.17c-.92,1.28-.2,3.08,1.34,3.37l5.13.97-2.74-9.51Z"></path><path class="cls-10" d="m326.9,108.28s4.51-2.6,6.11-6.3c0,0,4.77,8.36-4.97,15.38l-1.14-9.08Z"></path><path class="cls-13" d="m235.99,177.95l-13.75,44.31-28.15-4.48,12.54-78.69s20.79,22.51,29.35,38.86Z"></path><path class="cls-9" d="m235.99,177.95l-13.75,44.31-28.15-4.48,12.54-78.69s20.79,22.51,29.35,38.86Z"></path><polygon class="cls-11" points="411.4 279.59 396.54 423.58 381.18 423.58 369.36 310.69 342.26 290.09 411.4 279.59"></polygon><polygon class="cls-11" points="342.26 290.09 342.26 423.7 360.28 423.7 376.83 306.01 342.26 290.09"></polygon><path class="cls-13" d="m198.52,130.47s-13.24-11.28-32.02-11.2c-18.78.08-50.23,14.07-56.8,61.17-6.57,47.1.19,99.15.19,99.15l69.14,10.5s76.18-110.06,19.49-159.62Z"></path><path class="cls-9" d="m185.3,279.86l-6.27,10.23-69.14-10.5s-13.86-101.55,15.89-135.03l23.66,36.11,35.86,99.18Z"></path><path class="cls-13" d="m320.73,134.42s13.07-11.48,31.85-11.67c18.78-.19,50.43,13.34,57.68,60.34,7.25,47,1.25,99.14,1.25,99.14l-68.98,11.5s-77.77-108.95-21.8-159.32Z"></path><path class="cls-3" d="m122.74,157.3c-7.54,40.67-13.72,145.28,129.64,121.89l-1.1-14.31s-66.68-4.9-77.55-32.85c-9.21-23.68,7.68-89.38-24.64-94.22-12.49-1.87-24.04,7.08-26.35,19.5Z"></path><path class="cls-13" d="m119.38,157.7c-2.28,10.37-3.77,25.94.59,44.43l50.48-.43s8.3-51.78-13.66-65.07c0,0-5.29-4.52-15.68-1.87-10.99,2.8-19.29,11.86-21.72,22.94Z"></path><path class="cls-2" d="m119.38,157.7c-2.28,10.37-3.77,25.94.59,44.43l50.48-.43s8.3-51.78-13.66-65.07c0,0-5.29-4.52-15.68-1.87-10.99,2.8-19.29,11.86-21.72,22.94Z"></path><path class="cls-13" d="m173.37,423.72s1.52,7.08,7.55,8.41c6.03,1.34,6.83,7.52,1.13,8.33-5.7.82-18.89-8.14-18.89-8.14l1.58-8.75,8.63.14Z"></path><path class="cls-13" d="m89.53,423.72s-1.52,7.08-7.55,8.41c-6.03,1.34-6.83,7.52-1.13,8.33s18.89-8.14,18.89-8.14l-1.58-8.75-8.63.14Z"></path><path class="cls-9" d="m345.62,165.35s-7.81,27.93,17.76,49.24c25.57,21.31,21.04,58.93-28.02,68.17l7.17,10.98,73.75-12.59,3.54-51.61-26.45-53.23-47.75-10.97Z"></path><rect class="cls-12" x="244.75" y="260.69" width="9.28" height="19.71" transform="translate(-20.03 19.94) rotate(-4.4)"></rect><path class="cls-12" d="m305.44,74.55s-3.38,9.41,9.4,9.49c12.78.08,7.43,11.87,17.5,12.5s11.81-3.48,11.37-10.99.61-21.87-10.35-24.48-29.66-5.22-27.92,13.48Z"></path><path class="cls-13" d="m343.45,157.33c-1.02-17.08,16.95-28.96,32.65-22.15,22.25,9.64,58.79,27.83,65.2,66.25,10.11,60.63-19.1,83.14-52.37,109.26l-7.44-15.22s40.52-43.79,17.35-84.02c-17.74-30.8-53.98-30.64-55.38-54.12Z"></path><path class="cls-2" d="m343.45,157.33c-1.02-17.08,16.95-28.96,32.65-22.15,22.25,9.64,58.79,27.83,65.2,66.25,10.11,60.63-19.1,83.14-52.37,109.26l-7.44-15.22s40.52-43.79,17.35-84.02c-17.74-30.8-53.98-30.64-55.38-54.12Z"></path><polygon class="cls-3" points="382.35 297.25 373.43 301.57 381.17 314.91 388.93 310.69 382.35 297.25"></polygon><polygon class="cls-11" points="179.03 290.09 179.03 423.7 161.01 423.7 144.46 306.01 179.03 290.09"></polygon><path class="cls-5" d="m280.32,260.94l1.68,18.03s-13.87,6.25-22.12,1.49,2.26-25.1,20.44-19.52Z"></path><path class="cls-13" d="m346.53,423.72s-1.52,7.08-7.55,8.41-6.83,7.52-1.13,8.33c5.7.82,18.89-8.14,18.89-8.14l-1.58-8.75-8.63.14Z"></path><path class="cls-13" d="m384.59,423.72s-1.52,7.08-7.55,8.41c-6.03,1.34-6.83,7.52-1.13,8.33,5.7.82,18.89-8.14,18.89-8.14l-1.58-8.75-8.63.14Z"></path><polygon class="cls-11" points="109.89 279.59 84.79 423.58 103.92 423.7 145.12 310.69 179.03 290.09 109.89 279.59"></polygon><path class="cls-3" d="m253.59,264.58s5.5-6.29,11.51-3.45c6,2.83,1.4,2.99,6.62,5.92s12.81,16.34-16.94,12.97l-1.19-15.43Z"></path></g></svg>