<svg xmlns="http://www.w3.org/2000/svg" xmlns:xlink="http://www.w3.org/1999/xlink" width="193.038" height="147.095" viewBox="0 0 193.038 147.095">
  <defs>
    <linearGradient id="linear-gradient" x1="0.5" x2="0.5" y2="1" gradientUnits="objectBoundingBox">
      <stop offset="0" stop-color="#18db1e"/>
      <stop offset="1" stop-color="#0ebed9"/>
    </linearGradient>
    <linearGradient id="linear-gradient-2" x1="0.5" x2="0.5" y2="1" gradientUnits="objectBoundingBox">
      <stop offset="0" stop-color="#00afdc"/>
      <stop offset="1" stop-color="#2adc00"/>
    </linearGradient>
    <linearGradient id="linear-gradient-3" x1="0.5" x2="0.5" y2="1" gradientUnits="objectBoundingBox">
      <stop offset="0" stop-color="#15ec3a"/>
      <stop offset="1" stop-color="#1dd6c4"/>
    </linearGradient>
    <linearGradient id="linear-gradient-4" x1="0.5" x2="0.5" y2="1" gradientUnits="objectBoundingBox">
      <stop offset="0" stop-color="#0dc7e5"/>
      <stop offset="1" stop-color="#10cf09"/>
    </linearGradient>
  </defs>
  <g id="Group_2" data-name="Group 2" transform="translate(-78.976 -390.527)">
    <path id="Rectangle_3" data-name="Rectangle 3" d="M14,0h7A14,14,0,0,1,35,14V127a14,14,0,0,1-14,14H20A20,20,0,0,1,0,121V14A14,14,0,0,1,14,0Z" transform="translate(78.976 401.342) rotate(-18)" fill="url(#linear-gradient)"/>
    <rect id="Rectangle_4" data-name="Rectangle 4" width="35" height="109" rx="14" transform="matrix(0.914, 0.407, -0.407, 0.914, 156.912, 422.24)" fill="url(#linear-gradient-2)"/>
    <rect id="Rectangle_5" data-name="Rectangle 5" width="35" height="124" rx="14" transform="translate(144.004 432.464) rotate(-32)" fill="url(#linear-gradient-3)"/>
    <rect id="Rectangle_6" data-name="Rectangle 6" width="35" height="142" rx="14" transform="translate(238.543 390.918) rotate(17)" fill="url(#linear-gradient-4)"/>
  </g>
</svg>
