<svg xmlns="http://www.w3.org/2000/svg" width="193.038" height="147.095" xmlns:v="https://vecta.io/nano"><defs><linearGradient id="A" x1=".5" x2=".5" y2="1"><stop offset="0" stop-color="#18db1e"/><stop offset="1" stop-color="#0ebed9"/></linearGradient><linearGradient id="B" x1=".5" x2=".5" y2="1"><stop offset="0" stop-color="#00afdc"/><stop offset="1" stop-color="#2adc00"/></linearGradient><linearGradient id="C" x1=".5" x2=".5" y2="1"><stop offset="0" stop-color="#15ec3a"/><stop offset="1" stop-color="#1dd6c4"/></linearGradient><linearGradient id="D" x1=".5" x2=".5" y2="1"><stop offset="0" stop-color="#0dc7e5"/><stop offset="1" stop-color="#10cf09"/></linearGradient></defs><g transform="translate(-78.976 -390.527)"><path d="M14,0h7A14,14,0,0,1,35,14V127a14,14,0,0,1-14,14H20A20,20,0,0,1,0,121V14A14,14,0,0,1,14,0Z" transform="matrix(.951057 -.309017 .309017 .951057 78.976 401.342)" fill="url(#A)"/><rect width="35" height="109" rx="14" transform="matrix(.914 .407 -.407 .914 156.912 422.24)" fill="url(#B)"/><rect width="35" height="124" rx="14" transform="matrix(.848048 -.529919 .529919 .848048 144.004 432.464)" fill="url(#C)"/><rect width="35" height="142" rx="14" transform="matrix(.956305 .292372 -.292372 .956305 238.543 390.918)" fill="url(#D)"/></g></svg>